# xmcd
# 
# Track frame offsets:
#     150
#     945
#     12810
#     25335
#     28142
#     42482
#     55482
#     68442
#     80840
#     85205
#     96017
#     96582
#     107767
#     109092
#     112660
#     117717
#     129772
#     142912
#     143225
#     156205
#     168562
#     182297
#     183225
# 
# Disc length: 2600
# 
# Revision: 1
# Processed by: cddbd v1.5.2PL0 Copyright (c) Steve Scherf et al.
# Submitted via: fre:ac v1.0.17
# 
DISCID=280a2617
DTITLE=Charlie Parker - The Complete Studio Recordings on Savoy Years Disc3
DYEAR=1947
DGENRE=Jazz
TTITLE0=MILESTONES - 1
TTITLE1=MILESTONES - 2
TTITLE2=MILESTONES - 3
TTITLE3=LITTLE WILLIE LEAPS - 1
TTITLE4=LITTLE WILLIE LEAPS - 2
TTITLE5=LITTLE WILLIE LEAPS - 3
TTITLE6=HARF NELSON - 1
TTITLE7=HARF NELSON - 2
TTITLE8=SIPPIN' AT BELL'S - 1
TTITLE9=SIPPIN' AT BELL'S - 2
TTITLE10=SIPPIN' AT BELL'S - 3
TTITLE11=SIPPIN' AT BELL'S - 4
TTITLE12=ANOTHER HAIR DO - 1
TTITLE13=ANOTHER HAIR DO - 2
TTITLE14=ANOTHER HAIR DO - 3
TTITLE15=ANOTHER HAIR DO - 4
TTITLE16=BLUEBIRD - 1
TTITLE17=BLUEBIRD - 2
TTITLE18=BLUEBIRD - 3
TTITLE19=KLAUNSTANCE
TTITLE20=BIRD GETS THE WORM - 1
TTITLE21=BIRD GETS THE WORM - 2
TTITLE22=BIRD GETS THE WORM - 3
EXTD=YEAR: 1947
EXTT0=
EXTT1=
EXTT2=
EXTT3=
EXTT4=
EXTT5=
EXTT6=
EXTT7=
EXTT8=
EXTT9=
EXTT10=
EXTT11=
EXTT12=
EXTT13=
EXTT14=
EXTT15=
EXTT16=
EXTT17=
EXTT18=
EXTT19=
EXTT20=
EXTT21=
EXTT22=
PLAYORDER=
